solid CAD Exchanger 3.9.2 (cadexchanger.com)
facet normal 0.991444861374 0.13052619222 0
 outer loop
  vertex 1.44888873943 0.388228567654 0
  vertex 1.5 0 5.2
  vertex 1.5 0 0
 endloop
endfacet
facet normal 0.923879532511 0.382683432365 0
 outer loop
  vertex 1.44888873943 0.388228567654 5.2
  vertex 1.44888873943 0.388228567654 0
  vertex 1.29903810568 0.75 5.2
 endloop
endfacet
facet normal 0.608761429009 0.793353340291 0
 outer loop
  vertex 1.06066017178 1.06066017178 5.2
  vertex 1.06066017178 1.06066017178 0
  vertex 0.75 1.29903810568 5.2
 endloop
endfacet
facet normal 0.13052619222 0.991444861374 0
 outer loop
  vertex 0.388228567654 1.44888873943 5.2
  vertex 0.388228567654 1.44888873943 0
  vertex 9.18485099361e-17 1.5 5.2
 endloop
endfacet
facet normal -0.382683432365 0.923879532511 0
 outer loop
  vertex -0.388228567654 1.44888873943 5.2
  vertex -0.388228567654 1.44888873943 0
  vertex -0.75 1.29903810568 5.2
 endloop
endfacet
facet normal -0.793353340291 0.608761429009 0
 outer loop
  vertex -1.06066017178 1.06066017178 5.2
  vertex -1.06066017178 1.06066017178 0
  vertex -1.29903810568 0.75 5.2
 endloop
endfacet
facet normal -0.991444861374 0.13052619222 0
 outer loop
  vertex -1.44888873943 0.388228567654 5.2
  vertex -1.44888873943 0.388228567654 0
  vertex -1.5 1.83697019872e-16 5.2
 endloop
endfacet
facet normal -0.923879532511 -0.382683432365 -0
 outer loop
  vertex -1.44888873943 -0.388228567654 5.2
  vertex -1.44888873943 -0.388228567654 0
  vertex -1.29903810568 -0.75 5.2
 endloop
endfacet
facet normal -0.608761429009 -0.793353340291 -0
 outer loop
  vertex -1.06066017178 -1.06066017178 5.2
  vertex -1.06066017178 -1.06066017178 0
  vertex -0.75 -1.29903810568 5.2
 endloop
endfacet
facet normal -0.13052619222 -0.991444861374 -0
 outer loop
  vertex -0.388228567654 -1.44888873943 5.2
  vertex -0.388228567654 -1.44888873943 0
  vertex -2.75545529808e-16 -1.5 5.2
 endloop
endfacet
facet normal 0.382683432365 -0.923879532511 0
 outer loop
  vertex 0.388228567654 -1.44888873943 5.2
  vertex 0.388228567654 -1.44888873943 0
  vertex 0.75 -1.29903810568 5.2
 endloop
endfacet
facet normal 0.793353340291 -0.608761429009 0
 outer loop
  vertex 1.06066017178 -1.06066017178 5.2
  vertex 1.06066017178 -1.06066017178 0
  vertex 1.29903810568 -0.75 5.2
 endloop
endfacet
facet normal 0.991444861374 -0.13052619222 0
 outer loop
  vertex 1.44888873943 -0.388228567654 5.2
  vertex 1.44888873943 -0.388228567654 0
  vertex 1.5 0 5.2
 endloop
endfacet
facet normal -0.991444861374 -0.13052619222 -0
 outer loop
  vertex -1.44888873943 -0.388228567654 5.2
  vertex -1.5 1.83697019872e-16 0
  vertex -1.44888873943 -0.388228567654 0
 endloop
endfacet
facet normal -0.923879532511 -0.382683432365 -0
 outer loop
  vertex -1.29903810568 -0.75 5.2
  vertex -1.44888873943 -0.388228567654 0
  vertex -1.29903810568 -0.75 0
 endloop
endfacet
facet normal -0.793353340291 -0.608761429009 -0
 outer loop
  vertex -1.06066017178 -1.06066017178 5.2
  vertex -1.29903810568 -0.75 0
  vertex -1.06066017178 -1.06066017178 0
 endloop
endfacet
facet normal -0.608761429009 -0.793353340291 -0
 outer loop
  vertex -0.75 -1.29903810568 5.2
  vertex -1.06066017178 -1.06066017178 0
  vertex -0.75 -1.29903810568 0
 endloop
endfacet
facet normal -0.382683432365 -0.923879532511 -0
 outer loop
  vertex -0.388228567654 -1.44888873943 5.2
  vertex -0.75 -1.29903810568 0
  vertex -0.388228567654 -1.44888873943 0
 endloop
endfacet
facet normal -0.13052619222 -0.991444861374 -0
 outer loop
  vertex -2.75545529808e-16 -1.5 5.2
  vertex -0.388228567654 -1.44888873943 0
  vertex -2.75545529808e-16 -1.5 0
 endloop
endfacet
facet normal 0.13052619222 -0.991444861374 0
 outer loop
  vertex 0.388228567654 -1.44888873943 5.2
  vertex -2.75545529808e-16 -1.5 0
  vertex 0.388228567654 -1.44888873943 0
 endloop
endfacet
facet normal 0.382683432365 -0.923879532511 0
 outer loop
  vertex 0.75 -1.29903810568 5.2
  vertex 0.388228567654 -1.44888873943 0
  vertex 0.75 -1.29903810568 0
 endloop
endfacet
facet normal 0.608761429009 -0.793353340291 0
 outer loop
  vertex 1.06066017178 -1.06066017178 5.2
  vertex 0.75 -1.29903810568 0
  vertex 1.06066017178 -1.06066017178 0
 endloop
endfacet
facet normal 0.793353340291 -0.608761429009 0
 outer loop
  vertex 1.29903810568 -0.75 5.2
  vertex 1.06066017178 -1.06066017178 0
  vertex 1.29903810568 -0.75 0
 endloop
endfacet
facet normal 0.923879532511 -0.382683432365 0
 outer loop
  vertex 1.44888873943 -0.388228567654 5.2
  vertex 1.29903810568 -0.75 0
  vertex 1.44888873943 -0.388228567654 0
 endloop
endfacet
facet normal 0.991444861374 -0.13052619222 0
 outer loop
  vertex 1.5 0 5.2
  vertex 1.44888873943 -0.388228567654 0
  vertex 1.5 0 0
 endloop
endfacet
facet normal 0.923879532511 -0.382683432365 0
 outer loop
  vertex 1.29903810568 -0.75 5.2
  vertex 1.29903810568 -0.75 0
  vertex 1.44888873943 -0.388228567654 5.2
 endloop
endfacet
facet normal -0.991444861374 0.13052619222 0
 outer loop
  vertex -1.5 1.83697019872e-16 5.2
  vertex -1.44888873943 0.388228567654 0
  vertex -1.5 1.83697019872e-16 0
 endloop
endfacet
facet normal 0.608761429009 -0.793353340291 0
 outer loop
  vertex 0.75 -1.29903810568 5.2
  vertex 0.75 -1.29903810568 0
  vertex 1.06066017178 -1.06066017178 5.2
 endloop
endfacet
facet normal -0.923879532511 0.382683432365 0
 outer loop
  vertex -1.44888873943 0.388228567654 5.2
  vertex -1.29903810568 0.75 0
  vertex -1.44888873943 0.388228567654 0
 endloop
endfacet
facet normal 0.13052619222 -0.991444861374 0
 outer loop
  vertex -2.75545529808e-16 -1.5 5.2
  vertex -2.75545529808e-16 -1.5 0
  vertex 0.388228567654 -1.44888873943 5.2
 endloop
endfacet
facet normal -0.793353340291 0.608761429009 0
 outer loop
  vertex -1.29903810568 0.75 5.2
  vertex -1.06066017178 1.06066017178 0
  vertex -1.29903810568 0.75 0
 endloop
endfacet
facet normal -0.382683432365 -0.923879532511 -0
 outer loop
  vertex -0.75 -1.29903810568 5.2
  vertex -0.75 -1.29903810568 0
  vertex -0.388228567654 -1.44888873943 5.2
 endloop
endfacet
facet normal -0.608761429009 0.793353340291 0
 outer loop
  vertex -1.06066017178 1.06066017178 5.2
  vertex -0.75 1.29903810568 0
  vertex -1.06066017178 1.06066017178 0
 endloop
endfacet
facet normal -0.793353340291 -0.608761429009 -0
 outer loop
  vertex -1.29903810568 -0.75 5.2
  vertex -1.29903810568 -0.75 0
  vertex -1.06066017178 -1.06066017178 5.2
 endloop
endfacet
facet normal -0.382683432365 0.923879532511 0
 outer loop
  vertex -0.75 1.29903810568 5.2
  vertex -0.388228567654 1.44888873943 0
  vertex -0.75 1.29903810568 0
 endloop
endfacet
facet normal -0.991444861374 -0.13052619222 -0
 outer loop
  vertex -1.5 1.83697019872e-16 5.2
  vertex -1.5 1.83697019872e-16 0
  vertex -1.44888873943 -0.388228567654 5.2
 endloop
endfacet
facet normal -0.13052619222 0.991444861374 0
 outer loop
  vertex -0.388228567654 1.44888873943 5.2
  vertex 9.18485099361e-17 1.5 0
  vertex -0.388228567654 1.44888873943 0
 endloop
endfacet
facet normal -0.923879532511 0.382683432365 0
 outer loop
  vertex -1.29903810568 0.75 5.2
  vertex -1.29903810568 0.75 0
  vertex -1.44888873943 0.388228567654 5.2
 endloop
endfacet
facet normal 0.13052619222 0.991444861374 0
 outer loop
  vertex 9.18485099361e-17 1.5 5.2
  vertex 0.388228567654 1.44888873943 0
  vertex 9.18485099361e-17 1.5 0
 endloop
endfacet
facet normal -0.608761429009 0.793353340291 0
 outer loop
  vertex -0.75 1.29903810568 5.2
  vertex -0.75 1.29903810568 0
  vertex -1.06066017178 1.06066017178 5.2
 endloop
endfacet
facet normal 0.382683432365 0.923879532511 0
 outer loop
  vertex 0.388228567654 1.44888873943 5.2
  vertex 0.75 1.29903810568 0
  vertex 0.388228567654 1.44888873943 0
 endloop
endfacet
facet normal -0.13052619222 0.991444861374 0
 outer loop
  vertex 9.18485099361e-17 1.5 5.2
  vertex 9.18485099361e-17 1.5 0
  vertex -0.388228567654 1.44888873943 5.2
 endloop
endfacet
facet normal 0.608761429009 0.793353340291 0
 outer loop
  vertex 0.75 1.29903810568 5.2
  vertex 1.06066017178 1.06066017178 0
  vertex 0.75 1.29903810568 0
 endloop
endfacet
facet normal 0.382683432365 0.923879532511 0
 outer loop
  vertex 0.75 1.29903810568 5.2
  vertex 0.75 1.29903810568 0
  vertex 0.388228567654 1.44888873943 5.2
 endloop
endfacet
facet normal 0.793353340291 0.608761429009 0
 outer loop
  vertex 1.06066017178 1.06066017178 5.2
  vertex 1.29903810568 0.75 0
  vertex 1.06066017178 1.06066017178 0
 endloop
endfacet
facet normal 0.793353340291 0.608761429009 0
 outer loop
  vertex 1.29903810568 0.75 5.2
  vertex 1.29903810568 0.75 0
  vertex 1.06066017178 1.06066017178 5.2
 endloop
endfacet
facet normal 0.923879532511 0.382683432365 0
 outer loop
  vertex 1.29903810568 0.75 5.2
  vertex 1.44888873943 0.388228567654 0
  vertex 1.29903810568 0.75 0
 endloop
endfacet
facet normal 0.991444861374 0.13052619222 0
 outer loop
  vertex 1.44888873943 0.388228567654 5.2
  vertex 1.5 0 5.2
  vertex 1.44888873943 0.388228567654 0
 endloop
endfacet
facet normal 0 0 1
 outer loop
  vertex 1.29903810568 0.75 5.2
  vertex 1.5 0 5.2
  vertex 1.44888873943 0.388228567654 5.2
 endloop
endfacet
facet normal 0 0 1
 outer loop
  vertex 1.06066017178 1.06066017178 5.2
  vertex 1.5 0 5.2
  vertex 1.29903810568 0.75 5.2
 endloop
endfacet
facet normal 0 0 1
 outer loop
  vertex 0.75 1.29903810568 5.2
  vertex 1.5 0 5.2
  vertex 1.06066017178 1.06066017178 5.2
 endloop
endfacet
facet normal 0 0 1
 outer loop
  vertex 0.388228567654 1.44888873943 5.2
  vertex 1.5 0 5.2
  vertex 0.75 1.29903810568 5.2
 endloop
endfacet
facet normal 0 0 1
 outer loop
  vertex 9.18485099361e-17 1.5 5.2
  vertex 1.5 0 5.2
  vertex 0.388228567654 1.44888873943 5.2
 endloop
endfacet
facet normal -0 0 1
 outer loop
  vertex -0.388228567654 1.44888873943 5.2
  vertex 1.5 0 5.2
  vertex 9.18485099361e-17 1.5 5.2
 endloop
endfacet
facet normal -0 0 1
 outer loop
  vertex -0.75 1.29903810568 5.2
  vertex 1.5 0 5.2
  vertex -0.388228567654 1.44888873943 5.2
 endloop
endfacet
facet normal -0 0 1
 outer loop
  vertex -1.06066017178 1.06066017178 5.2
  vertex 1.5 0 5.2
  vertex -0.75 1.29903810568 5.2
 endloop
endfacet
facet normal -0 0 1
 outer loop
  vertex -1.29903810568 0.75 5.2
  vertex 1.5 0 5.2
  vertex -1.06066017178 1.06066017178 5.2
 endloop
endfacet
facet normal -0 0 1
 outer loop
  vertex -1.44888873943 0.388228567654 5.2
  vertex 1.5 0 5.2
  vertex -1.29903810568 0.75 5.2
 endloop
endfacet
facet normal -0 0 1
 outer loop
  vertex -1.5 1.83697019872e-16 5.2
  vertex 1.5 0 5.2
  vertex -1.44888873943 0.388228567654 5.2
 endloop
endfacet
facet normal 0 -0 1
 outer loop
  vertex -1.44888873943 -0.388228567654 5.2
  vertex 1.5 0 5.2
  vertex -1.5 1.83697019872e-16 5.2
 endloop
endfacet
facet normal 0 -0 1
 outer loop
  vertex -1.29903810568 -0.75 5.2
  vertex 1.5 0 5.2
  vertex -1.44888873943 -0.388228567654 5.2
 endloop
endfacet
facet normal 0 -0 1
 outer loop
  vertex -1.06066017178 -1.06066017178 5.2
  vertex 1.5 0 5.2
  vertex -1.29903810568 -0.75 5.2
 endloop
endfacet
facet normal 0 -0 1
 outer loop
  vertex -0.75 -1.29903810568 5.2
  vertex 1.5 0 5.2
  vertex -1.06066017178 -1.06066017178 5.2
 endloop
endfacet
facet normal 0 -0 1
 outer loop
  vertex -0.388228567654 -1.44888873943 5.2
  vertex 1.5 0 5.2
  vertex -0.75 -1.29903810568 5.2
 endloop
endfacet
facet normal 0 -0 1
 outer loop
  vertex -2.75545529808e-16 -1.5 5.2
  vertex 1.5 0 5.2
  vertex -0.388228567654 -1.44888873943 5.2
 endloop
endfacet
facet normal 0 -0 1
 outer loop
  vertex 0.388228567654 -1.44888873943 5.2
  vertex 1.5 0 5.2
  vertex -2.75545529808e-16 -1.5 5.2
 endloop
endfacet
facet normal 0 -0 1
 outer loop
  vertex 0.75 -1.29903810568 5.2
  vertex 1.5 0 5.2
  vertex 0.388228567654 -1.44888873943 5.2
 endloop
endfacet
facet normal 0 -0 1
 outer loop
  vertex 1.06066017178 -1.06066017178 5.2
  vertex 1.5 0 5.2
  vertex 0.75 -1.29903810568 5.2
 endloop
endfacet
facet normal 0 -0 1
 outer loop
  vertex 1.29903810568 -0.75 5.2
  vertex 1.5 0 5.2
  vertex 1.06066017178 -1.06066017178 5.2
 endloop
endfacet
facet normal 0 -0 1
 outer loop
  vertex 1.44888873943 -0.388228567654 5.2
  vertex 1.5 0 5.2
  vertex 1.29903810568 -0.75 5.2
 endloop
endfacet
facet normal 0 0 -1
 outer loop
  vertex 1.29903810568 -0.75 0
  vertex 1.5 0 0
  vertex 1.44888873943 -0.388228567654 0
 endloop
endfacet
facet normal 0 0 -1
 outer loop
  vertex 1.06066017178 -1.06066017178 0
  vertex 1.5 0 0
  vertex 1.29903810568 -0.75 0
 endloop
endfacet
facet normal 0 0 -1
 outer loop
  vertex 0.75 -1.29903810568 0
  vertex 1.5 0 0
  vertex 1.06066017178 -1.06066017178 0
 endloop
endfacet
facet normal 0 0 -1
 outer loop
  vertex 0.388228567654 -1.44888873943 0
  vertex 1.5 0 0
  vertex 0.75 -1.29903810568 0
 endloop
endfacet
facet normal 0 0 -1
 outer loop
  vertex -2.75545529808e-16 -1.5 0
  vertex 1.5 0 0
  vertex 0.388228567654 -1.44888873943 0
 endloop
endfacet
facet normal 0 0 -1
 outer loop
  vertex -0.388228567654 -1.44888873943 0
  vertex 1.5 0 0
  vertex -2.75545529808e-16 -1.5 0
 endloop
endfacet
facet normal 0 0 -1
 outer loop
  vertex -0.75 -1.29903810568 0
  vertex 1.5 0 0
  vertex -0.388228567654 -1.44888873943 0
 endloop
endfacet
facet normal 0 0 -1
 outer loop
  vertex -1.06066017178 -1.06066017178 0
  vertex 1.5 0 0
  vertex -0.75 -1.29903810568 0
 endloop
endfacet
facet normal 0 0 -1
 outer loop
  vertex -1.29903810568 -0.75 0
  vertex 1.5 0 0
  vertex -1.06066017178 -1.06066017178 0
 endloop
endfacet
facet normal 0 0 -1
 outer loop
  vertex -1.44888873943 -0.388228567654 0
  vertex 1.5 0 0
  vertex -1.29903810568 -0.75 0
 endloop
endfacet
facet normal 0 0 -1
 outer loop
  vertex -1.5 1.83697019872e-16 0
  vertex 1.5 0 0
  vertex -1.44888873943 -0.388228567654 0
 endloop
endfacet
facet normal 0 -0 -1
 outer loop
  vertex -1.44888873943 0.388228567654 0
  vertex 1.5 0 0
  vertex -1.5 1.83697019872e-16 0
 endloop
endfacet
facet normal 0 -0 -1
 outer loop
  vertex -1.29903810568 0.75 0
  vertex 1.5 0 0
  vertex -1.44888873943 0.388228567654 0
 endloop
endfacet
facet normal 0 -0 -1
 outer loop
  vertex -1.06066017178 1.06066017178 0
  vertex 1.5 0 0
  vertex -1.29903810568 0.75 0
 endloop
endfacet
facet normal 0 -0 -1
 outer loop
  vertex -0.75 1.29903810568 0
  vertex 1.5 0 0
  vertex -1.06066017178 1.06066017178 0
 endloop
endfacet
facet normal 0 -0 -1
 outer loop
  vertex -0.388228567654 1.44888873943 0
  vertex 1.5 0 0
  vertex -0.75 1.29903810568 0
 endloop
endfacet
facet normal 0 -0 -1
 outer loop
  vertex 9.18485099361e-17 1.5 0
  vertex 1.5 0 0
  vertex -0.388228567654 1.44888873943 0
 endloop
endfacet
facet normal -0 -0 -1
 outer loop
  vertex 0.388228567654 1.44888873943 0
  vertex 1.5 0 0
  vertex 9.18485099361e-17 1.5 0
 endloop
endfacet
facet normal -0 -0 -1
 outer loop
  vertex 0.75 1.29903810568 0
  vertex 1.5 0 0
  vertex 0.388228567654 1.44888873943 0
 endloop
endfacet
facet normal -0 -0 -1
 outer loop
  vertex 1.06066017178 1.06066017178 0
  vertex 1.5 0 0
  vertex 0.75 1.29903810568 0
 endloop
endfacet
facet normal -0 -0 -1
 outer loop
  vertex 1.29903810568 0.75 0
  vertex 1.5 0 0
  vertex 1.06066017178 1.06066017178 0
 endloop
endfacet
facet normal -0 -0 -1
 outer loop
  vertex 1.44888873943 0.388228567654 0
  vertex 1.5 0 0
  vertex 1.29903810568 0.75 0
 endloop
endfacet
endsolid CAD Exchanger 3.9.2 (cadexchanger.com)
